<svg class="wave" height="50" preserveAspectRatio="none" xmlns="http://www.w3.org/2000/svg" viewBox="0 0 1920 75" pointer-events="none"><defs><clipPath id="a"><path fill="none" d="M0 0h1920v75H0z"/></clipPath><style>.b{clip-path:url(#a)}.d{fill:#f9f9fc;opacity:.5;isolation:isolate}</style></defs><path d="M1963 327H-105V65a2647.49 2647.49 0 01536-46c217.7 3.5 239.6 30.8 470 36 297.3 6.7 367.5-36.2 642-28a2511.41 2511.41 0 01420 48" fill="#f9f9fc"/><g class="b"><path class="d" d="M-127 404h2090V44c-140.1-28-343.3-46.7-566 22-75.5 23.3-118.5 45.9-162 64-48.6 20.2-404.7 128-784 0-95.8-32.3-109.4-51.7-216-80C86.6 10.6-41.8 6.9-127 10"/></g><g class="b"><path class="d" d="M1979 462l-2134-16V106c406.8-85.8 731.6-90.1 960-76 167.4 10.3 322.3 32.9 680 56 207 13.4 378 20.3 494 24"/></g><g class="b"><path class="d" d="M1998 484H-243V100c445.8 26.8 794.2-4.1 1035-39 141-20.4 231.1-40.1 378-45 349.6-11.6 636.7 73.8 828 150"/></g></svg>