<svg xmlns="http://www.w3.org/2000/svg" width="1000" height="1000" zoomAndPan="disable"><path fill="rgba(255,255,255,.16)" d="M-1125 0l750 1000h500L-875 0z"/><path fill="rgba(255,255,255,.12)" d="M-875 0L125 1000h250L-625 0z"/><path fill="rgba(255,255,255,.08)" d="M-625 0L375 1000h250L-375 0z"/><path fill="rgba(255,255,255,.04)" d="M-375 0L625 1000h250L-125 0z"/><path fill="none" d="M-125 0L875 1000h250L125 0z"/><path fill="rgba(0,0,0,.025)" d="M125 0l1000 1000h250L375 0z"/><path fill="rgba(0,0,0,.05)" d="M375 0l1000 1000h250L625 0z"/><path fill="rgba(0,0,0,.075)" d="M625 0l1000 1000h250L875 0z"/><path fill="rgba(0,0,0,.1)" d="M875 0l1000 1000h250L1125 0z"/></svg>